<?xml version="1.0" encoding="UTF-8" standalone="no"?>
<!-- Created with Inkscape (http://www.inkscape.org/) -->

<svg
   width="62.499996mm"
   height="62.499996mm"
   viewBox="0 0 62.499996 62.499996"
   version="1.1"
   id="svg1"
   xmlns="http://www.w3.org/2000/svg"
   xmlns:svg="http://www.w3.org/2000/svg">
  <defs
     id="defs1" />
  <g
     id="layer1"
     transform="translate(-38.835888,-102.60888)">
    <rect
       style="fill:#2a45f6;fill-opacity:1;stroke:#0100b6;stroke-width:2.5;stroke-linecap:round;stroke-linejoin:round;stroke-miterlimit:0;stroke-opacity:1;paint-order:markers stroke fill"
       id="rect1"
       width="60"
       height="60"
       x="40.085888"
       y="103.85889" />
    <circle
       style="fill:#ebff14;fill-opacity:1;stroke:#aeb000;stroke-width:2.5;stroke-linecap:round;stroke-linejoin:round;stroke-miterlimit:0;stroke-opacity:1;paint-order:markers stroke fill"
       id="path1"
       cx="70.514717"
       cy="134.28773"
       r="25" />
    <path
       style="fill:#000000;fill-opacity:1;stroke:none;stroke-width:2.5;stroke-linecap:round;stroke-linejoin:round;stroke-miterlimit:0;stroke-opacity:1;paint-order:markers stroke fill"
       d="m 59.126685,131.4635 c 0,0 2.459818,-5.55737 0,0 z"
       id="path3" />
    <path
       style="fill:#6ddee0;fill-opacity:1;stroke:#2291f5;stroke-width:2.5;stroke-linecap:round;stroke-linejoin:round;stroke-miterlimit:0;stroke-opacity:1;paint-order:markers stroke fill"
       d="m 64.775152,136.01872 0.182208,-3.82638 c 0,0 -6.55951,-9.20154 5.830676,-9.38375 12.390183,-0.18221 6.286196,9.20154 6.286196,9.20154 l -0.0911,4.09969 -3.644173,3.55307 -5.466257,-0.0911 z"
       id="path4" />
    <rect
       style="fill:#222338;fill-opacity:1;stroke:#000000;stroke-width:2.5;stroke-linecap:round;stroke-linejoin:round;stroke-miterlimit:0;stroke-opacity:1;paint-order:markers stroke fill"
       id="rect4"
       width="11.843558"
       height="4.3730059"
       x="64.866257"
       y="139.29848" />
    <path
       style="fill:none;fill-opacity:1;stroke:#000000;stroke-width:0.5;stroke-linecap:round;stroke-linejoin:round;stroke-miterlimit:0;stroke-dasharray:none;stroke-opacity:1;paint-order:markers stroke fill"
       d="m 69.512576,139.29847 -0.0911,-5.28406 c 0,0 -2.368711,-11.20582 -2.277607,-3.91748 0.0911,7.28835 4.008588,-2.27761 4.008588,-2.27761 0,0 0.63773,7.74387 2.459815,2.82424 1.822088,-4.91963 -1.457669,-3.64418 -0.911042,3.27975 0.546626,6.92393 0.0911,5.37516 0.0911,5.37516 z"
       id="path5" />
  </g>
</svg>
